<?xml version="1.0" encoding="utf-8"?>
<!-- Generated by IcoMoon.io -->
<!DOCTYPE svg PUBLIC "-//W3C//DTD SVG 1.1//EN" "http://www.w3.org/Graphics/SVG/1.1/DTD/svg11.dtd">
<svg version="1.1" xmlns="http://www.w3.org/2000/svg" xmlns:xlink="http://www.w3.org/1999/xlink" width="32" height="32" viewBox="0 0 32 32">
<g id="icomoon-ignore">
	<line stroke-width="1" x1="" y1="" x2="" y2="" stroke="#449FDB" opacity=""></line>
</g>
	<path d="M29.48 15.080c0.327 0.447 0.52 0.993 0.52 1.587 0 1.473-1.193 2.667-2.667 2.667h-2.667c-0.733 0-1.333 0.6-1.333 1.333v8c0 1.473-1.193 2.667-2.667 2.667l-9.333-0c-1.473 0-2.667-1.193-2.667-2.667l0-8c0-0.733-0.6-1.333-1.333-1.333l-2.667-0c-1.473 0-2.667-1.193-2.667-2.667 0-0.593 0.193-1.14 0.52-1.587l11.113-13.433c1.307-1.307 3.427-1.307 4.733 0l11.113 13.433z" opacity="1" visibility="false" fill="#000000"></path>
</svg>
